<?xml version="1.0" encoding="UTF-8"?>
<!DOCTYPE svg PUBLIC "-//W3C//DTD SVG 1.1//EN" "http://www.w3.org/Graphics/SVG/1.1/DTD/svg11.dtd">
<!-- Creator: CorelDRAW -->
<svg xmlns="http://www.w3.org/2000/svg" xml:space="preserve" width="118px" height="26px" version="1.1" style="shape-rendering:geometricPrecision; text-rendering:geometricPrecision; image-rendering:optimizeQuality; fill-rule:evenodd; clip-rule:evenodd"
viewBox="0 0 9.533 2.092"
 xmlns:xlink="http://www.w3.org/1999/xlink"
 xmlns:xodm="http://www.corel.com/coreldraw/odm/2003">
 <defs>
  <style type="text/css">
   <![CDATA[
    .fil1 {fill:#8BBF73}
    .fil0 {fill:#DAF2C2}
    .fil2 {fill:#F1F1F1;fill-rule:nonzero}
   ]]>
  </style>
 </defs>
 <g id="Layer_x0020_1">
  <metadata id="CorelCorpID_0Corel-Layer"/>
  <g id="_1575526971072">
   <g>
    <path class="fil0" d="M1.233 1.537l0.004 -0.327c-0.146,0.079 -0.382,0.047 -0.567,0.048 -0.599,0.004 -0.266,-0.337 -0.382,-0.888 -0.018,-0.084 -0.055,-0.161 -0.094,-0.219 -0.023,-0.035 -0.038,-0.058 -0.071,-0.087l-0.111 -0.064c0.01,1.271 -0.163,1.539 0.54,1.54 0.219,0.001 0.466,0.011 0.681,-0.003l0 0z"/>
    <path class="fil0" d="M1.306 0.477c0.103,0.034 0.118,0.033 0.195,0.098l0.087 0.059 0.001 -0.633 -0.119 0.079c-0.11,0.108 -0.165,0.234 -0.164,0.397z"/>
    <path class="fil1" d="M0.015 2.085c0.147,-0.066 0.28,-0.229 0.28,-0.46 -0.047,-0.031 -0.094,-0.039 -0.147,-0.07 -0.069,-0.04 -0.063,-0.059 -0.133,-0.097l0 0.627zm0.367 -1.538c0.003,0.112 0,0.224 -0.011,0.336 0.044,0.005 -0.063,-0.051 0.615,-0.051 0.522,-0.001 0.221,0.418 0.329,0.892 0.038,0.166 0.14,0.306 0.267,0.357 0.006,-0.302 0.002,-0.607 0.002,-0.91 0,-0.138 0.023,-0.307 -0.035,-0.426 -0.165,-0.338 -0.882,-0.201 -1.167,-0.198z"/>
   </g>
   <g>
    <polygon class="fil2" points="2.708,0.853 2.869,0.853 2.869,2.081 2.701,2.081 2.701,1.162 2.709,1.216 2.407,1.911 2.287,1.911 1.985,1.233 1.993,1.162 1.993,2.081 1.825,2.081 1.825,0.853 1.986,0.853 2.347,1.664 "/>
    <polygon id="_1" class="fil2" points="3.291,2.081 3.148,2.081 3.148,1.058 3.291,1.058 "/>
    <path id="_2" class="fil2" d="M3.88 2.092c-0.071,0 -0.134,-0.016 -0.187,-0.047 -0.054,-0.032 -0.096,-0.076 -0.125,-0.134 -0.03,-0.058 -0.045,-0.125 -0.045,-0.201l0 -0.28c0,-0.076 0.015,-0.143 0.045,-0.201 0.029,-0.058 0.071,-0.102 0.125,-0.134 0.053,-0.032 0.116,-0.048 0.187,-0.048 0.058,0 0.112,0.013 0.162,0.038 0.049,0.025 0.09,0.061 0.123,0.107 0.033,0.046 0.056,0.099 0.067,0.16l0 0 -0.147 0 0 0c-0.009,-0.032 -0.024,-0.061 -0.045,-0.086 -0.021,-0.025 -0.045,-0.044 -0.073,-0.058 -0.028,-0.014 -0.057,-0.021 -0.087,-0.021 -0.042,0 -0.079,0.011 -0.11,0.031 -0.032,0.02 -0.056,0.048 -0.073,0.085 -0.018,0.036 -0.026,0.078 -0.026,0.127l0 0.281c0,0.047 0.008,0.09 0.026,0.126 0.017,0.037 0.041,0.065 0.073,0.085 0.031,0.02 0.068,0.03 0.11,0.03 0.03,0 0.059,-0.006 0.087,-0.019 0.028,-0.013 0.052,-0.031 0.073,-0.056 0.021,-0.025 0.036,-0.055 0.045,-0.089l0 0 0.147 0 0 0c-0.011,0.06 -0.034,0.114 -0.067,0.16 -0.034,0.046 -0.075,0.081 -0.124,0.106 -0.049,0.026 -0.103,0.038 -0.161,0.038l0 0z"/>
    <path id="_3" class="fil2" d="M4.485 1.512l0.349 0c0.027,0 0.051,-0.006 0.072,-0.02 0.022,-0.013 0.038,-0.031 0.049,-0.056 0.012,-0.024 0.018,-0.052 0.018,-0.083l0 0c0,-0.031 -0.006,-0.059 -0.018,-0.083 -0.011,-0.025 -0.027,-0.043 -0.048,-0.056 -0.021,-0.014 -0.045,-0.02 -0.073,-0.02l-0.349 0 0 -0.137 0.343 0c0.06,0 0.111,0.012 0.156,0.037 0.045,0.024 0.08,0.059 0.104,0.104 0.025,0.044 0.037,0.096 0.037,0.155l0 0c0,0.059 -0.012,0.11 -0.037,0.155 -0.025,0.045 -0.06,0.079 -0.104,0.104 -0.045,0.024 -0.097,0.037 -0.156,0.037l-0.343 0 0 -0.137zm-0.063 -0.455l0.144 0 0 1.024 -0.144 0 0 -1.024zm0.341 0.56l0.143 -0.032 0.262 0.496 -0.17 0 -0.235 -0.464z"/>
    <path id="_4" class="fil2" d="M5.672 2.092c-0.071,0 -0.134,-0.016 -0.188,-0.047 -0.055,-0.031 -0.097,-0.075 -0.127,-0.132 -0.03,-0.057 -0.045,-0.123 -0.045,-0.198l0 -0.29c0,-0.075 0.015,-0.141 0.045,-0.198 0.03,-0.057 0.072,-0.102 0.127,-0.133 0.054,-0.031 0.117,-0.047 0.188,-0.047 0.072,0 0.134,0.016 0.189,0.047 0.054,0.031 0.097,0.076 0.126,0.133 0.03,0.057 0.045,0.123 0.045,0.198l0 0.29c0,0.075 -0.015,0.141 -0.045,0.198 -0.029,0.057 -0.072,0.101 -0.126,0.132 -0.055,0.031 -0.117,0.047 -0.189,0.047zm0 -0.142c0.042,0 0.08,-0.009 0.112,-0.028 0.032,-0.019 0.057,-0.046 0.074,-0.081 0.018,-0.035 0.027,-0.075 0.027,-0.121l0 -0.3c0,-0.046 -0.009,-0.087 -0.027,-0.122 -0.017,-0.035 -0.042,-0.061 -0.074,-0.081 -0.032,-0.018 -0.07,-0.028 -0.112,-0.028 -0.042,0 -0.079,0.01 -0.111,0.028 -0.032,0.02 -0.057,0.046 -0.075,0.081 -0.017,0.035 -0.026,0.076 -0.026,0.122l0 0.3c0,0.046 0.009,0.086 0.026,0.121 0.018,0.035 0.043,0.062 0.075,0.081 0.032,0.019 0.069,0.028 0.111,0.028z"/>
    <path id="_5" class="fil2" d="M6.571 2.092c-0.071,0 -0.133,-0.016 -0.187,-0.047 -0.054,-0.032 -0.095,-0.076 -0.125,-0.134 -0.029,-0.058 -0.044,-0.125 -0.044,-0.201l0 -0.28c0,-0.076 0.015,-0.143 0.044,-0.201 0.03,-0.058 0.071,-0.102 0.125,-0.134 0.054,-0.032 0.116,-0.048 0.187,-0.048 0.059,0 0.113,0.013 0.162,0.038 0.049,0.025 0.091,0.061 0.124,0.107 0.033,0.046 0.055,0.099 0.067,0.16l0 0 -0.147 0 0 0c-0.009,-0.032 -0.024,-0.061 -0.045,-0.086 -0.021,-0.025 -0.045,-0.044 -0.073,-0.058 -0.029,-0.014 -0.058,-0.021 -0.088,-0.021 -0.042,0 -0.078,0.011 -0.11,0.031 -0.031,0.02 -0.056,0.048 -0.073,0.085 -0.017,0.036 -0.026,0.078 -0.026,0.127l0 0.281c0,0.047 0.009,0.09 0.026,0.126 0.017,0.037 0.042,0.065 0.073,0.085 0.032,0.02 0.068,0.03 0.11,0.03 0.031,0 0.06,-0.006 0.088,-0.019 0.028,-0.013 0.052,-0.031 0.073,-0.056 0.021,-0.025 0.036,-0.055 0.045,-0.089l0 0 0.147 0 0 0c-0.012,0.06 -0.034,0.114 -0.068,0.16 -0.033,0.046 -0.074,0.081 -0.124,0.106 -0.049,0.026 -0.103,0.038 -0.161,0.038l0 0z"/>
    <path id="_6" class="fil2" d="M7.439 2.092c-0.072,0 -0.135,-0.016 -0.189,-0.047 -0.055,-0.031 -0.097,-0.075 -0.127,-0.132 -0.029,-0.057 -0.044,-0.123 -0.044,-0.198l0 -0.29c0,-0.075 0.015,-0.141 0.044,-0.198 0.03,-0.057 0.072,-0.102 0.127,-0.133 0.054,-0.031 0.117,-0.047 0.189,-0.047 0.071,0 0.134,0.016 0.188,0.047 0.054,0.031 0.097,0.076 0.127,0.133 0.029,0.057 0.044,0.123 0.044,0.198l0 0.29c0,0.075 -0.015,0.141 -0.044,0.198 -0.03,0.057 -0.073,0.101 -0.127,0.132 -0.054,0.031 -0.117,0.047 -0.188,0.047zm0 -0.142c0.042,0 0.079,-0.009 0.111,-0.028 0.032,-0.019 0.057,-0.046 0.074,-0.081 0.018,-0.035 0.027,-0.075 0.027,-0.121l0 -0.3c0,-0.046 -0.009,-0.087 -0.027,-0.122 -0.017,-0.035 -0.042,-0.061 -0.074,-0.081 -0.032,-0.018 -0.069,-0.028 -0.111,-0.028 -0.043,0 -0.08,0.01 -0.112,0.028 -0.032,0.02 -0.057,0.046 -0.075,0.081 -0.017,0.035 -0.026,0.076 -0.026,0.122l0 0.3c0,0.046 0.009,0.086 0.026,0.121 0.018,0.035 0.043,0.062 0.075,0.081 0.032,0.019 0.069,0.028 0.112,0.028z"/>
    <path id="_7" class="fil2" d="M8.09 1.548l0.327 0c0.031,0 0.059,-0.007 0.082,-0.022 0.024,-0.014 0.042,-0.035 0.055,-0.062 0.013,-0.027 0.019,-0.057 0.019,-0.092l0 0c0,-0.035 -0.006,-0.066 -0.019,-0.093 -0.013,-0.027 -0.031,-0.048 -0.055,-0.062 -0.023,-0.015 -0.051,-0.022 -0.082,-0.022l-0.327 0 0 -0.137 0.323 0c0.061,0 0.114,0.013 0.161,0.039 0.046,0.026 0.082,0.063 0.108,0.11 0.025,0.048 0.038,0.102 0.038,0.165l0 0c0,0.062 -0.013,0.117 -0.038,0.164 -0.026,0.047 -0.062,0.084 -0.108,0.11 -0.047,0.026 -0.1,0.039 -0.161,0.039l-0.323 0 0 -0.137zm-0.074 -0.49l0.144 0 0 1.023 -0.144 0 0 -1.023z"/>
    <polygon id="_8" class="fil2" points="9.221,1.666 9.221,2.081 9.078,2.081 9.078,1.666 8.766,1.058 8.926,1.058 9.149,1.52 9.373,1.058 9.533,1.058 "/>
   </g>
  </g>
 </g>
</svg>
